<svg width="182" height="30" viewBox="0 0 182 30" fill="none" xmlns="http://www.w3.org/2000/svg">
<g clip-path="url(#clip0_3067_42)">
<g clip-path="url(#clip1_3067_42)">
<path d="M74.6966 0H59.0787C55.1692 0 52 3.19314 52 7.13208V22.8679C52 26.8069 55.1692 30 59.0787 30H74.6966C78.6061 30 81.7753 26.8069 81.7753 22.8679V7.13208C81.7753 3.19314 78.6061 0 74.6966 0Z" fill="#0046AD"/>
<path d="M66.8694 5.77368C67.2946 5.77373 67.6875 6.00233 67.9001 6.37333L75.7556 20.0821C75.9682 20.4531 75.9682 20.9102 75.7556 21.2812C75.543 21.6523 75.15 21.8808 74.7248 21.8808H62.8794C62.383 23.2022 61.1158 24.1417 59.6305 24.1417C57.7123 24.1417 56.1573 22.5749 56.1573 20.6424C56.1573 18.7097 57.7123 17.1431 59.6305 17.1431C61.145 17.1431 62.4329 18.12 62.9079 19.4824H72.6633L66.8691 9.3709L63.4708 15.2989C63.142 15.8722 62.414 16.0687 61.8448 15.7374C61.2756 15.4062 61.0807 14.6727 61.4094 14.0992L65.8387 6.3731C66.0513 6.00216 66.4443 5.77366 66.8694 5.77368ZM59.6305 19.0044C58.7253 19.0044 57.9915 19.7437 57.9915 20.6557C57.9915 21.5677 58.7253 22.3071 59.6305 22.3071C60.5357 22.3071 61.2694 21.5677 61.2694 20.6557C61.2694 19.7437 60.5356 19.0044 59.6305 19.0044Z" fill="white"/>
<path d="M164.434 9.2567H166.546L166.816 10.7963C167.191 10.2982 167.64 9.89821 168.164 9.59632C168.703 9.29443 169.378 9.13594 170.187 9.12085C170.981 9.12085 171.685 9.29443 172.299 9.6416C172.928 9.98878 173.408 10.5171 173.737 11.2265C174.127 10.5775 174.652 10.0642 175.31 9.68689C175.97 9.30953 176.756 9.12085 177.67 9.12085C178.958 9.12085 180 9.5284 180.793 10.3435C181.588 11.1586 181.984 12.4341 181.984 14.1699V20.8492H179.557V14.3284C179.557 13.3171 179.355 12.5473 178.951 12.019C178.546 11.4907 177.947 11.2265 177.153 11.2265C176.315 11.2265 175.647 11.5284 175.153 12.1322C174.674 12.7209 174.434 13.536 174.434 14.5775V20.8492H171.984V14.3284C171.984 13.302 171.775 12.5321 171.355 12.019C170.951 11.4907 170.352 11.2265 169.557 11.2265C168.734 11.2265 168.074 11.5359 167.58 12.1548C167.101 12.7737 166.861 13.6039 166.861 14.6454V20.8492H164.434V9.2567Z" fill="white"/>
<path d="M151.53 5H153.957V10.9547C154.811 9.73208 156.017 9.12075 157.575 9.12075C158.969 9.12075 160.092 9.54339 160.946 10.3887C161.8 11.234 162.227 12.5698 162.227 14.3962V20.8491H159.8V14.6C159.8 13.4982 159.56 12.6604 159.081 12.0868C158.617 11.5132 157.935 11.2264 157.036 11.2264C156.077 11.2264 155.321 11.566 154.766 12.2453C154.227 12.9095 153.957 13.8226 153.957 14.9849V20.8491H151.53V5Z" fill="white"/>
<path d="M147.739 20.8492C146.646 20.8492 145.844 20.5926 145.335 20.0794C144.84 19.5663 144.593 18.7738 144.593 17.7021V11.4077H142.593V9.25678H144.593V6.01904H147.043V9.25678H149.852V11.4077H147.043V17.453C147.043 17.9058 147.133 18.2304 147.312 18.4266C147.492 18.6077 147.814 18.6983 148.279 18.6983H149.987V20.8492H147.739Z" fill="white"/>
<path d="M138.956 9.25659H141.383V20.849H138.956V9.25659Z" fill="white"/>
<path d="M131.099 9.25659H133.257L133.526 11C133.856 10.4566 134.283 10.034 134.807 9.73206C135.332 9.41508 136.036 9.25659 136.92 9.25659H137.459V11.5434H136.38C135.377 11.5434 134.65 11.8754 134.2 12.5396C133.751 13.1886 133.526 14.0189 133.526 15.0302V20.849H131.099V9.25659Z" fill="white"/>
<path d="M123.283 20.985C122.129 20.985 121.103 20.7435 120.204 20.2605C119.32 19.7624 118.631 19.0681 118.137 18.1775C117.657 17.2718 117.418 16.2303 117.418 15.0529C117.418 13.8906 117.657 12.8643 118.137 11.9737C118.631 11.068 119.32 10.3661 120.204 9.86802C121.103 9.36991 122.129 9.12085 123.283 9.12085C124.436 9.12085 125.455 9.36991 126.339 9.86802C127.238 10.3661 127.927 11.068 128.406 11.9737C128.901 12.8643 129.148 13.8906 129.148 15.0529C129.148 16.2303 128.901 17.2718 128.406 18.1775C127.927 19.0681 127.238 19.7624 126.339 20.2605C125.455 20.7435 124.436 20.985 123.283 20.985ZM119.912 15.0529C119.912 16.185 120.219 17.1133 120.833 17.8378C121.447 18.5473 122.264 18.902 123.283 18.902C124.301 18.902 125.118 18.5473 125.732 17.8378C126.361 17.1133 126.676 16.185 126.676 15.0529C126.676 13.9209 126.361 13.0001 125.732 12.2907C125.118 11.5661 124.301 11.2039 123.283 11.2039C122.264 11.2039 121.447 11.5661 120.833 12.2907C120.219 13.0001 119.912 13.9209 119.912 15.0529Z" fill="white"/>
<path d="M110.905 25.5133C109.108 25.5133 107.752 25.234 106.838 24.6756C105.939 24.1322 105.49 23.3548 105.49 22.3435C105.52 21.785 105.684 21.3246 105.984 20.9624C106.284 20.6151 106.681 20.3133 107.175 20.0567C106.441 19.6039 106.074 18.985 106.074 18.2001C106.074 17.6718 106.216 17.2265 106.501 16.8642C106.8 16.502 107.198 16.2152 107.692 16.0039C107.198 15.6718 106.815 15.2567 106.546 14.7586C106.276 14.2454 106.141 13.6794 106.141 13.0605C106.141 11.8529 106.591 10.8944 107.49 10.185C108.389 9.47557 109.594 9.12086 111.108 9.12086C112.021 9.12086 112.845 9.2718 113.58 9.57368C113.819 8.81897 114.164 8.28311 114.613 7.96614C115.078 7.63406 115.692 7.46802 116.456 7.46802H117.04V9.6416H116.321C115.962 9.6416 115.684 9.70953 115.49 9.84538C115.31 9.98123 115.168 10.2303 115.063 10.5926C115.647 11.2567 115.939 12.0567 115.939 12.9925C115.939 14.2001 115.497 15.1585 114.613 15.868C113.729 16.5623 112.538 16.9095 111.04 16.9095C110.381 16.9095 109.744 16.8265 109.13 16.6605C108.696 16.8718 108.478 17.1963 108.478 17.6341C108.478 18.1472 108.838 18.4039 109.557 18.4039H113.018C114.381 18.4039 115.392 18.6831 116.051 19.2416C116.711 19.8001 117.04 20.585 117.04 21.5963C117.04 22.819 116.501 23.7775 115.422 24.4718C114.344 25.1661 112.838 25.5133 110.905 25.5133ZM107.872 22.0492C107.872 22.5775 108.104 22.985 108.568 23.2718C109.048 23.5585 109.857 23.702 110.995 23.702C112.239 23.702 113.138 23.5359 113.692 23.2039C114.261 22.8869 114.546 22.4567 114.546 21.9133C114.546 21.4907 114.396 21.1737 114.096 20.9624C113.812 20.751 113.34 20.6454 112.681 20.6454H108.748C108.164 20.9774 107.872 21.4454 107.872 22.0492ZM108.568 13.0152C108.568 13.6341 108.785 14.1322 109.22 14.5095C109.669 14.8868 110.276 15.0756 111.04 15.0756C111.804 15.0756 112.403 14.8944 112.838 14.5322C113.287 14.1548 113.512 13.6492 113.512 13.0152C113.512 12.3812 113.295 11.8831 112.86 11.5208C112.426 11.1435 111.819 10.9548 111.04 10.9548C110.276 10.9548 109.669 11.1435 109.22 11.5208C108.785 11.8831 108.568 12.3812 108.568 13.0152Z" fill="white"/>
<path d="M103.192 20.8491C102.099 20.8491 101.305 20.5924 100.81 20.0792C100.316 19.5661 100.069 18.7736 100.069 17.7019V5H102.496V17.4528C102.496 17.9207 102.586 18.2453 102.765 18.4264C102.945 18.6075 103.252 18.6981 103.687 18.6981H104.99V20.8491H103.192Z" fill="white"/>
<path d="M91.7753 20.985C90.4869 20.985 89.4531 20.6831 88.6742 20.0794C87.8952 19.4756 87.5056 18.6454 87.5056 17.5888C87.5056 16.3964 87.9251 15.4831 88.764 14.8492C89.603 14.2001 90.8239 13.8756 92.427 13.8756H95.3258V13.1737C95.3258 12.5247 95.1011 12.019 94.6517 11.6567C94.2172 11.2793 93.603 11.0907 92.809 11.0907C92.1048 11.0907 91.5206 11.2492 91.0562 11.5661C90.5918 11.8681 90.3146 12.2756 90.2247 12.7888H87.8427C87.9626 11.6567 88.4719 10.7661 89.3708 10.1171C90.2846 9.45292 91.4682 9.12085 92.9213 9.12085C94.4644 9.12085 95.648 9.48311 96.4719 10.2076C97.3109 10.9322 97.7303 11.9737 97.7303 13.3322V17.9737C97.7303 18.2604 97.7902 18.4567 97.9101 18.5624C98.03 18.668 98.2172 18.7209 98.4719 18.7209H98.9663V20.8492H97.6854C96.2772 20.8492 95.573 20.2681 95.573 19.1058V19.0378C94.7191 20.336 93.4531 20.985 91.7753 20.985ZM89.9775 17.4303C89.9775 17.9284 90.1648 18.3284 90.5393 18.6303C90.9289 18.9322 91.4531 19.0831 92.1124 19.0831C93.1161 19.0831 93.8952 18.8114 94.4494 18.268C95.0188 17.7246 95.3109 17.0001 95.3258 16.0944V15.6869H92.3146C90.7565 15.6869 89.9775 16.268 89.9775 17.4303Z" fill="white"/>
</g>
<line x1="40.5" y1="2.18557e-08" x2="40.5" y2="30" stroke="white"/>
<path d="M20.9609 0.200928H8.68233L0 8.88326V21.1619L8.68233 29.8442H20.9609L29.6433 21.1619V8.88326L20.9609 0.200928Z" fill="white"/>
<path d="M20.5558 1.17896H9.08745L0.978241 9.28822V20.7565L9.08751 28.8658H20.5558L28.665 20.7565V9.28816L20.5558 1.17896Z" fill="url(#paint0_linear_3067_42)"/>
<path d="M18.714 5.62549H10.9293L5.42473 11.1301V18.9147L10.9293 24.4193H18.714L24.2186 18.9147V11.1301L18.714 5.62549Z" fill="white"/>
<path d="M7.3219 17.8962H22.3214V18.1927H7.3219V17.8962ZM14.5199 19.7291H14.2221V19.2878H14.5199V19.7291ZM15.0688 19.2878H14.771V19.7291H15.0688V19.2878ZM10.6123 21.3621C10.63 21.9799 11.0933 22.4036 11.8611 22.4036C12.5407 22.4036 13.004 22.0197 13.004 21.4636C13.0085 20.8546 12.5098 20.6913 11.9979 20.5986C11.5125 20.5147 11.1948 20.4486 11.1948 20.1309C11.1948 19.8396 11.4375 19.6895 11.7861 19.6895C12.1612 19.6895 12.4083 19.9014 12.448 20.2147H12.9555C12.9334 19.6454 12.4922 19.2614 11.7861 19.2614C11.1286 19.2614 10.6873 19.6277 10.6873 20.1661C10.6873 20.7796 11.1727 20.9428 11.6846 21.0311C12.1744 21.1193 12.4965 21.19 12.4965 21.5166C12.4965 21.8122 12.2318 21.9755 11.8656 21.9755C11.4331 21.9755 11.1507 21.7328 11.1242 21.3709L10.6123 21.3621ZM13.4275 21.0532C13.4275 21.9314 13.8423 22.4036 14.641 22.4036C15.4441 22.4036 15.8634 21.9314 15.8634 21.0532V19.2878H15.3559V21.0796C15.3559 21.6533 15.1353 21.9534 14.641 21.9534C14.1556 21.9534 13.935 21.6533 13.935 21.0796V19.2877H13.4275V21.0532ZM17.4556 22.3771C18.422 22.3771 19.031 21.7461 19.031 20.8281C19.031 19.9102 18.422 19.2878 17.4556 19.2878H16.4054V22.3771H17.4556ZM16.9128 19.7292H17.4556C18.1352 19.7292 18.5103 20.1661 18.5103 20.8281C18.5103 21.4901 18.1352 21.9358 17.4556 21.9358H16.9128V19.7292ZM22.3214 10.7834L20.2839 16.801H18.7482L17.0128 11.6968V14.2178C17.0128 15.925 16.1673 16.8603 14.5458 16.8603C12.9328 16.8603 12.0835 15.925 12.0835 14.2178V11.9022H10.3418V16.801H9.05496V11.9022H7.3219V10.7834H13.3704V14.2863C13.3704 15.2387 13.7223 15.7534 14.5458 15.7534C15.378 15.7534 15.7256 15.2387 15.7256 14.2863V10.7834H18.0666L19.5118 15.2395L20.9914 10.7834H22.3214ZM13.7663 11.9022H14.3584V10.7834H13.7663V11.9022ZM14.7378 11.9022H15.3298V10.7834H14.7378V11.9022Z" fill="#0B253B"/>
</g>
<defs>
<linearGradient id="paint0_linear_3067_42" x1="14.8216" y1="1.17896" x2="14.8216" y2="28.8658" gradientUnits="userSpaceOnUse">
<stop offset="0.07" stop-color="#0046AD"/>
<stop offset="0.41" stop-color="#00A0E1"/>
<stop offset="0.88" stop-color="#0046AD"/>
</linearGradient>
<clipPath id="clip0_3067_42">
<rect width="182" height="30" fill="white"/>
</clipPath>
<clipPath id="clip1_3067_42">
<rect width="130" height="30" fill="white" transform="translate(52)"/>
</clipPath>
</defs>
</svg>
