<svg width="23" height="22" viewBox="0 0 23 22" fill="none" xmlns="http://www.w3.org/2000/svg">
<path d="M17.1098 0H5.33621C2.3891 0 0 2.34164 0 5.23019V16.7698C0 19.6584 2.3891 22 5.33621 22H17.1098C20.0569 22 22.446 19.6584 22.446 16.7698V5.23019C22.446 2.34164 20.0569 0 17.1098 0Z" fill="#0046AD"/>
<path d="M11.2093 4.23389C11.5298 4.23392 11.826 4.40156 11.9862 4.67363L17.9081 14.7267C18.0683 14.9988 18.0683 15.334 17.9081 15.6061C17.7478 15.8782 17.4515 16.0458 17.131 16.0458H8.20144C7.82722 17.0148 6.8719 17.7038 5.7522 17.7038C4.3062 17.7038 3.13397 16.5548 3.13397 15.1376C3.13398 13.7203 4.30621 12.5715 5.7522 12.5715C6.89396 12.5715 7.86481 13.2878 8.22287 14.287H15.5769L11.209 6.87184L8.64721 11.219C8.39934 11.6395 7.85059 11.7835 7.4215 11.5406C6.99241 11.2977 6.84544 10.7598 7.09328 10.3393L10.4322 4.67346C10.5926 4.40144 10.8888 4.23387 11.2093 4.23389ZM5.7522 13.9364C5.06982 13.9364 4.51667 14.4786 4.51666 15.1474C4.51666 15.8162 5.06982 16.3584 5.7522 16.3584C6.43457 16.3584 6.98774 15.8162 6.98774 15.1474C6.98773 14.4786 6.43456 13.9364 5.7522 13.9364Z" fill="white"/>
</svg>
