<?xml version="1.0" encoding="UTF-8"?><svg xmlns="http://www.w3.org/2000/svg" xmlns:xlink="http://www.w3.org/1999/xlink" viewBox="80 80 590 590" height="500" width="500">
<defs>
  <linearGradient id="TÜV_SÜD_Logo_Gradient" x1="375" y1="141.5" x2="375" y2="608.5" gradientUnits="userSpaceOnUse">
      <stop offset=".07" stop-color="#0046ad"/><stop offset=".41" stop-color="#00a0e1"/>
      <stop offset=".88" stop-color="#0046ad"/>
  </linearGradient>
   <defs>
    <filter id="f3">
      <feDropShadow dx="0" dy="0" stdDeviation="20" flood-color="rgba(0,0,0,.45)"/>
    </filter>
  </defs>
</defs>
<g id="Logo">
    <polygon filter="url(#f3)" points="478.5534 125 271.4466 125 125 271.4466 125 478.5534 271.4466 625 478.5534 625 625 478.5534 625 271.4466 478.5534 125" fill="#fff"/>
    <polygon points="471.7189 141.5 278.2811 141.5 141.5 278.2811 141.5 471.7189 278.2811 608.5 471.7189 608.5 608.5 471.7189 608.5 278.2811 471.7189 141.5" fill="url(#TÜV_SÜD_Logo_Gradient)"/>
    <polygon points="440.6528 216.5 309.3472 216.5 216.5 309.3472 216.5 440.6528 309.3472 533.5 440.6528 533.5 533.5 440.6528 533.5 309.3472 440.6528 216.5" fill="#fff"/>
    <polygon points="248.5 423.4725 501.5 423.4725 501.5 428.4725 248.5 428.4725 248.5 425.9725 248.5 423.4725" fill="#0b253b"/>
    <path d="M369.9101,454.3879h-5.0233v-7.4434h5.0233v7.4434Zm9.2586-7.4434h-5.0233v7.4434h5.0233v-7.4434Zm-75.1686,34.9877c.2976,10.4217,8.1128,17.5678,21.0643,17.5678,11.4619,0,19.278-6.4763,19.278-15.8555,.0742-10.2725-8.3371-13.0267-16.9708-14.5897-8.1879-1.4147-13.5466-2.5308-13.5466-7.8905,0-4.9128,4.0935-7.4441,9.9741-7.4441,6.3265,0,10.4951,3.5733,11.1643,8.8583h8.5596c-.3717-9.6027-7.8152-16.0785-19.7239-16.0785-11.0911,0-18.5337,6.1782-18.5337,15.2599,0,10.3466,8.1869,13.1009,16.8216,14.5897,8.262,1.4888,13.6949,2.6796,13.6949,8.188,0,4.9874-4.4652,7.7417-10.6434,7.7417-7.2943,0-12.0579-4.0942-12.5047-10.1979l-8.6337-.1492Zm47.4843-5.2104c0,14.8131,6.9967,22.7782,20.4683,22.7782,13.5466,0,20.6184-7.9651,20.6184-22.7782v-29.7773h-8.5596v30.2236c0,9.6773-3.7218,14.7389-12.0588,14.7389-8.1869,0-11.9087-5.0616-11.9087-14.7389v-30.2236h-8.5596v29.7773Zm67.9434,22.3314c16.3006,0,26.5723-10.6447,26.5723-26.1276s-10.2717-25.981-26.5723-25.981h-17.7152v52.1086h17.7152Zm-9.1556-44.6627h9.1556c11.4619,0,17.7893,7.3695,17.7893,18.5351s-6.3274,18.6839-17.7893,18.6839h-9.1556v-37.2191Z" fill="#0b253b"/>
    <path d="M501.5,303.5l-34.3664,101.5h-25.9037l-29.2713-86.0936v42.5211c0,28.7969-14.2611,44.5725-41.6108,44.5725-27.2066,0-41.5328-15.7756-41.5328-44.5725v-39.058h-29.3765v82.6305h-21.7067v-82.6305h-29.2319v-18.8695h102.022v59.0841c0,16.064,5.935,24.7459,19.8259,24.7459,14.0371,0,19.901-8.6819,19.901-24.7459v-59.0841h39.4849l24.3765,75.1623,24.9568-75.1623h22.4328Zm-144.2997,18.8695h9.9868v-18.8695h-9.9868v18.8695Zm16.3848,0h9.9868v-18.8695h-9.9868v18.8695Z" fill="#0b253b"/>
</g>
</svg>